<svg xmlns="http://www.w3.org/2000/svg" width="18" height="160" viewBox="0 0 18 160">
  <defs>
    <filter id="rough" filterUnits="userSpaceOnUse" x="-4" y="-8" width="26" height="176">
      <feTurbulence type="fractalNoise" baseFrequency=".07 .28" numOctaves="2" seed="23" result="noise"/>
      <feDisplacementMap in="SourceGraphic" in2="noise" scale="1.5" xChannelSelector="R" yChannelSelector="G"/>
    </filter>
  </defs>
  <g fill="none" stroke="#000" stroke-linecap="round" filter="url(#rough)">
    <path stroke-width="6.8" d="M7-4C5.8 7 8.1 13 6.8 23S8.2 40 6.9 52 8.1 70 6.8 82 8.2 99 6.9 112 8.1 130 6.8 143 7.8 154 7 164"/>
    <path stroke-width="1.35" opacity=".82" d="M7.5 36c5-2.4 8.4-.3 7.6 3.2-.7 3.2-5 4.2-8.1 1.3M7.5 116c5-2.4 8.4-.3 7.6 3.2-.7 3.2-5 4.2-8.1 1.3"/>
    <path stroke-width=".65" opacity=".62" d="M4.7 15C1.8 19 2.3 24 .3 28M9.6 38c3 4 2 9 5 13M4.5 69c-3 3-2.2 8-4.4 11M9.7 101c3 3.5 2 8 5 12M4.6 135c-3 3-2.2 7-4.2 10"/>
    <path stroke-width=".4" opacity=".42" d="M9.3 10c2.5 2 1.8 5 4 7M4.9 48c-2.3 2.5-1.8 5-3.8 7M9.4 88c2.4 2.2 1.7 5 4 7M4.8 116c-2.4 2.4-1.7 5-3.8 7"/>
  </g>
</svg>
